<?xml version="1.0" standalone="no"?>
<!DOCTYPE svg PUBLIC "-//W3C//DTD SVG 20010904//EN"
 "http://www.w3.org/TR/2001/REC-SVG-20010904/DTD/svg10.dtd">
<svg version="1.0" xmlns="http://www.w3.org/2000/svg"
 width="190pt" height="40pt" viewBox="0 0 1900.000000 400.000000"
 preserveAspectRatio="xMidYMid meet">

<g transform="translate(0.000000,400.000000) scale(0.100000,-0.100000)"
fill="#FFFFFF" stroke="none">
<path d="M1118 3393 c-131 -202 -236 -368 -234 -370 2 -2 110 48 240 111 l237
114 197 -95 c233 -112 282 -134 282 -126 0 10 -472 733 -479 733 -3 0 -113
-165 -243 -367z"/>
<path d="M2310 3350 l0 -340 148 0 c233 0 325 29 411 126 55 63 75 131 69 238
-7 132 -64 218 -178 270 -74 34 -159 46 -317 46 l-133 0 0 -340z m377 192 c61
-32 94 -86 100 -164 7 -85 -10 -144 -56 -189 -44 -45 -91 -59 -193 -59 l-78 0
0 221 0 221 93 -4 c69 -3 102 -10 134 -26z"/>
<path d="M3310 3350 l0 -340 240 0 240 0 0 60 0 60 -165 0 -165 0 0 85 0 85
140 0 140 0 0 60 0 60 -140 0 -140 0 0 75 0 75 160 0 160 0 0 60 0 60 -235 0
-235 0 0 -340z"/>
<path d="M4217 3683 c-4 -3 -7 -156 -7 -340 l0 -333 225 0 226 0 -3 58 -3 57
-147 3 -148 3 0 279 0 280 -68 0 c-38 0 -72 -3 -75 -7z"/>
<path d="M4870 3630 l0 -60 115 0 115 0 0 -280 0 -280 75 0 75 0 0 280 0 280
110 0 110 0 0 60 0 60 -300 0 -300 0 0 -60z"/>
<path d="M5828 3458 c-53 -128 -117 -281 -142 -340 l-45 -108 74 0 73 0 33 85
32 86 140 -3 141 -3 31 -80 31 -80 77 -3 c42 -2 77 0 77 4 0 3 -61 156 -137
340 l-136 334 -76 0 -77 0 -96 -232z m216 -53 l43 -110 -90 -3 c-49 -1 -91 -1
-94 1 -2 3 14 49 35 103 21 55 42 108 47 119 4 11 9 16 11 10 3 -5 24 -59 48
-120z"/>
<path d="M1115 3040 c-126 -54 -237 -103 -245 -109 -10 -7 146 -10 500 -10
290 0 506 4 495 9 -11 4 -127 54 -258 109 -131 56 -244 101 -250 100 -7 0
-115 -45 -242 -99z"/>
<path d="M3850 2534 c-8 -1 -48 -8 -87 -14 l-73 -12 0 -899 0 -899 110 0 110
0 0 915 0 915 -22 -1 c-13 -1 -30 -3 -38 -5z"/>
<path d="M6278 2522 l-88 -15 0 -898 0 -899 115 0 115 0 0 419 0 419 65 59
c189 174 410 179 460 10 12 -42 15 -126 15 -479 l0 -428 110 0 111 0 -3 498
-3 497 -33 68 c-58 117 -150 167 -307 167 -129 0 -249 -45 -359 -135 l-56 -45
0 390 0 390 -27 -1 c-16 -1 -67 -8 -115 -17z"/>
<path d="M13435 2530 c-22 -4 -61 -11 -87 -14 l-48 -7 0 -313 0 -312 -87 22
c-64 17 -118 23 -198 23 -184 1 -282 -36 -395 -149 -74 -74 -119 -157 -151
-277 -30 -112 -30 -335 -1 -446 42 -154 125 -268 238 -325 186 -93 395 -60
550 90 l62 59 12 -85 13 -86 89 0 88 0 0 915 0 915 -22 -1 c-13 -1 -41 -5 -63
-9z m-282 -801 c27 -5 71 -19 98 -30 l49 -21 0 -294 0 -294 -66 -70 c-182
-192 -412 -184 -514 19 -64 128 -65 366 -1 513 25 59 93 133 145 160 67 34
171 40 289 17z"/>
<path d="M2510 1585 l0 -875 115 0 115 0 2 387 3 388 282 3 282 2 -5 28 c-3
15 -11 61 -17 102 l-13 75 -264 5 -265 5 -3 268 -2 267 340 0 340 0 0 110 0
110 -455 0 -455 0 0 -875z"/>
<path d="M8990 1585 l0 -875 120 0 120 0 0 355 0 355 136 0 c159 0 253 13 349
47 220 80 334 246 335 488 0 205 -93 360 -263 440 -120 56 -189 65 -512 65
l-285 0 0 -875z m591 651 c163 -38 239 -147 226 -321 -9 -128 -70 -211 -187
-257 -46 -18 -82 -22 -222 -26 l-168 -4 0 311 0 311 148 0 c87 0 170 -6 203
-14z"/>
<path d="M4353 2434 c-95 -48 -97 -200 -4 -249 71 -36 169 -6 197 60 27 65 14
124 -40 174 -33 31 -108 38 -153 15z"/>
<path d="M7703 2341 l-103 -15 -2 -200 -3 -201 -92 -3 -93 -3 0 -94 0 -94 93
-3 92 -3 5 -420 c4 -376 7 -424 23 -460 25 -55 70 -100 131 -127 46 -21 65
-23 203 -23 83 0 153 2 156 5 3 3 -1 41 -9 85 -7 44 -13 86 -13 94 -1 11 -13
12 -55 7 -82 -9 -149 9 -185 49 -39 45 -43 96 -39 485 l3 305 148 3 c135 2
148 4 143 20 -2 9 -10 52 -17 94 l-12 77 -131 3 -131 3 -5 215 -5 215 -102
-14z"/>
<path d="M16590 2340 l-105 -15 -3 -202 -2 -203 -90 0 -90 0 0 -95 0 -95 90 0
90 0 0 -379 c0 -208 4 -402 10 -430 32 -170 129 -231 364 -231 66 0 127 4 135
9 12 8 12 23 1 99 l-13 90 -86 -1 c-107 -1 -144 16 -172 76 -17 39 -19 70 -19
405 l0 362 145 0 c109 0 145 3 145 13 0 6 -5 49 -12 95 l-11 82 -133 0 -134 0
-2 218 -3 217 -105 -15z"/>
<path d="M5171 1925 c-168 -47 -285 -175 -311 -339 -11 -72 -1 -159 26 -225
23 -55 79 -124 131 -160 26 -19 50 -36 52 -37 2 -2 -19 -24 -47 -49 -81 -73
-91 -155 -27 -215 14 -13 25 -27 25 -30 0 -4 -27 -24 -59 -44 -137 -84 -206
-203 -183 -315 27 -127 125 -202 326 -248 112 -26 377 -22 481 6 168 45 263
110 314 213 51 102 41 220 -26 298 -67 78 -176 116 -513 179 -181 34 -220 63
-164 122 27 28 31 29 124 29 103 0 171 15 253 56 172 88 256 288 197 475 -14
45 -16 65 -8 70 6 4 55 10 110 14 113 8 105 -2 83 125 -8 47 -15 86 -15 86 0
1 -69 -20 -152 -46 l-153 -47 -36 24 c-74 49 -137 66 -259 69 -81 3 -131 -1
-169 -11z m231 -157 c59 -17 133 -88 152 -145 45 -132 -5 -274 -117 -331 -65
-34 -165 -35 -231 -3 -117 57 -167 211 -111 343 48 116 180 174 307 136z m-2
-1009 c199 -37 266 -61 297 -108 60 -89 -5 -182 -157 -225 -122 -34 -303 -29
-423 10 -27 9 -66 33 -88 53 -33 32 -39 44 -39 80 0 47 26 105 62 138 43 41
142 94 163 88 11 -2 94 -19 185 -36z"/>
<path d="M10835 1926 c-106 -34 -197 -99 -277 -199 -43 -55 -41 -56 -58 58 -6
44 -13 92 -16 108 l-6 27 -89 0 -89 0 0 -605 0 -605 115 0 115 0 0 362 0 361
31 48 c73 114 226 217 357 241 56 10 63 14 58 32 -2 12 -10 58 -17 104 l-12
82 -36 -1 c-20 0 -54 -6 -76 -13z"/>
<path d="M11501 1924 c-185 -50 -322 -196 -378 -404 -25 -92 -25 -330 1 -420
32 -116 73 -189 150 -266 115 -114 245 -161 421 -151 333 19 540 283 522 666
-9 202 -57 323 -171 437 -75 74 -143 114 -237 139 -69 19 -238 18 -308 -1z
m285 -199 c130 -58 204 -205 204 -411 0 -111 -12 -180 -45 -252 -58 -128 -138
-183 -271 -190 -72 -4 -89 -1 -136 20 -138 64 -208 205 -208 423 0 147 34 264
100 338 88 100 228 129 356 72z"/>
<path d="M15570 1925 c-97 -27 -162 -65 -236 -139 -125 -125 -169 -249 -169
-476 0 -217 43 -343 157 -465 112 -121 264 -174 458 -162 132 9 267 54 337
113 l21 19 -16 96 -17 96 -65 -43 c-97 -66 -145 -79 -280 -79 -96 0 -122 3
-161 21 -140 65 -209 201 -209 409 0 204 66 337 198 402 112 55 311 29 437
-56 26 -17 52 -33 58 -34 10 -2 35 118 36 180 1 28 -5 36 -41 57 -89 51 -163
68 -313 72 -104 3 -154 0 -195 -11z"/>
<path d="M17500 1926 c-180 -50 -279 -180 -268 -350 12 -181 107 -263 398
-341 215 -57 271 -93 286 -182 12 -76 -42 -148 -131 -172 -63 -17 -203 -13
-287 8 -42 11 -113 39 -159 63 -46 23 -87 44 -90 46 -6 3 -14 -37 -34 -164
l-6 -41 68 -30 c302 -135 669 -98 792 80 94 138 74 352 -42 452 -60 52 -143
88 -307 135 -227 65 -287 107 -276 193 6 54 31 86 84 109 94 42 294 18 431
-51 34 -17 61 -30 61 -29 0 2 7 41 15 88 23 130 24 125 -48 149 -111 37 -198
51 -322 50 -66 0 -140 -6 -165 -13z"/>
<path d="M4310 1315 l0 -605 110 0 110 0 0 605 0 605 -110 0 -110 0 0 -605z"/>
<path d="M13880 1441 c0 -457 1 -482 21 -546 26 -85 97 -162 174 -189 69 -24
178 -31 248 -16 78 16 220 88 284 145 57 50 56 51 68 -40 11 -89 6 -85 106
-85 l89 0 0 605 0 605 -115 0 -115 0 0 -424 0 -425 -54 -47 c-190 -168 -385
-190 -458 -52 -23 43 -23 46 -26 496 l-3 452 -110 0 -109 0 0 -479z"/>
</g>
</svg>
